<svg width="60" height="60" viewBox="0 0 60 60" fill="none" xmlns="http://www.w3.org/2000/svg">
<path d="M39.6 45.6H25.2C24.48 45.6 24 45.12 24 44.4C24 42.6 23.16 41.52 21.84 39.84C21.12 39 20.28 37.92 19.44 36.6C17.16 33 15.12 28.68 14.64 27.12C14.16 25.56 14.52 24.48 15 23.88C15.48 23.16 16.44 22.8 17.52 22.8C18.96 22.8 20.4 24 21.72 25.56V13.2C21.72 11.16 23.28 9.59998 25.32 9.59998C27.36 9.59998 28.92 11.16 28.92 13.2V18.24C29.28 18.12 29.64 18 30.12 18C31.44 18 32.52 18.72 33.12 19.68C33.6 19.32 34.2 19.2 34.8 19.2C36.48 19.2 37.8 20.28 38.28 21.84C38.64 21.72 39.12 21.6 39.6 21.6C41.64 21.6 43.2 23.16 43.2 25.2V28.8C43.2 31.92 42.6 34.44 42 36.84C41.4 39.24 40.8 41.52 40.8 44.4C40.8 45.12 40.32 45.6 39.6 45.6ZM26.28 43.2H38.4C38.52 40.56 39.12 38.4 39.6 36.24C40.2 33.84 40.8 31.56 40.8 28.8V25.2C40.8 24.48 40.32 24 39.6 24C38.88 24 38.4 24.48 38.4 25.2V26.4C38.4 27.12 37.92 27.6 37.2 27.6C36.48 27.6 36 27.12 36 26.4V22.8C36 22.08 35.52 21.6 34.8 21.6C34.08 21.6 33.6 22.08 33.6 22.8V25.2C33.6 25.92 33.12 26.4 32.4 26.4C31.68 26.4 31.2 25.92 31.2 25.2V21.6C31.2 20.88 30.72 20.4 30 20.4C29.28 20.4 28.8 20.88 28.8 21.6V24C28.8 24.72 28.32 25.2 27.6 25.2C26.88 25.2 26.4 24.72 26.4 24V13.2C26.4 12.48 25.92 12 25.2 12C24.48 12 24 12.48 24 13.2V31.2C24 31.92 23.52 32.4 22.8 32.4C22.08 32.4 21.6 31.92 21.6 31.2V30.24C20.52 27.48 18.24 25.2 17.4 25.2C17.16 25.2 16.92 25.2 16.8 25.32C16.68 25.44 16.68 25.8 16.8 26.4C17.16 27.72 18.96 31.56 21.36 35.4C22.08 36.6 22.8 37.44 23.52 38.4C24.84 39.84 26.04 41.16 26.28 43.2Z" fill="black"/>
</svg>
