<svg width="50" height="50" viewBox="0 0 50 50" fill="none" xmlns="http://www.w3.org/2000/svg">
<path d="M17.8642 35.4009H42.2857C43.1008 35.4009 43.8124 34.7313 43.8124 33.8313C43.8124 32.9313 43.1008 32.2616 42.2857 32.2616H18.2196C17.0267 32.2616 16.2946 31.4241 16.1062 30.1482L15.7714 27.9509H42.3267C45.3821 27.9509 46.9517 26.067 47.391 23.075L49.0651 12.0045C49.1095 11.7416 49.1376 11.4762 49.149 11.2098C49.149 10.2054 48.3955 9.51429 47.2446 9.51429H13.0723L12.674 6.85714C12.4651 5.24554 11.8794 4.42857 9.74547 4.42857H2.39904C1.56244 4.42857 0.85083 5.1625 0.85083 6C0.85083 6.85714 1.56244 7.59018 2.39994 7.59018H9.47226L12.8205 30.567C13.2607 33.5384 14.8294 35.4009 17.8642 35.4009ZM45.591 12.6741L44.1071 22.6982C43.9392 23.9955 43.249 24.7911 42.0142 24.7911L15.3124 24.8116L13.533 12.6741H45.591ZM19.5178 45.5714C19.964 45.5751 20.4065 45.4899 20.8195 45.3209C21.2325 45.1518 21.6077 44.9022 21.9232 44.5867C22.2388 44.2711 22.4884 43.896 22.6574 43.483C22.8265 43.07 22.9117 42.6275 22.908 42.1813C22.9099 41.7355 22.8235 41.2938 22.6538 40.8817C22.4841 40.4695 22.2344 40.095 21.9192 39.7798C21.604 39.4646 21.2296 39.215 20.8174 39.0453C20.4052 38.8756 19.9635 38.7892 19.5178 38.7911C17.6142 38.7911 16.1071 40.2982 16.1071 42.1813C16.1071 44.0857 17.6142 45.5714 19.5178 45.5714ZM39.0839 45.5714C40.9883 45.5714 42.4946 44.0857 42.4946 42.1813C42.4946 40.2973 40.9883 38.7911 39.0839 38.7911C37.2008 38.7911 35.6732 40.2982 35.6732 42.1813C35.6732 44.0857 37.2008 45.5714 39.0839 45.5714Z" fill="black"/>
</svg>
