<svg width="42" height="31" viewBox="0 0 42 31" fill="none" xmlns="http://www.w3.org/2000/svg">
<g clip-path="url(#clip0_103_53)">
<path d="M21.2302 12.7953C21.2074 14.8849 22.8372 16.0509 24.0649 16.7442C25.3263 17.4555 25.7499 17.9116 25.7449 18.5478C25.7355 19.5213 24.7388 19.9509 23.8061 19.9676C22.1788 19.9968 21.2326 19.4585 20.4804 19.0513L19.8942 22.2301C20.6489 22.6331 22.0463 22.9846 23.4954 23C26.897 23 29.1224 21.0541 29.1345 18.0372C29.1478 14.2083 24.5644 13.9963 24.5957 12.2849C24.6065 11.766 25.0338 11.2122 25.9701 11.0714C26.4336 11.0003 27.7129 10.9458 29.1635 11.7199L29.7328 8.64433C28.9527 8.31518 27.9502 8 26.7019 8C23.5003 8 21.2484 9.97235 21.2302 12.7953ZM35.2032 8.26492C34.5821 8.26492 34.0587 8.68479 33.8251 9.32911L28.966 22.7741H32.3651L33.0415 20.6078H37.1952L37.5876 22.7741H40.5835L37.9692 8.26492H35.2032ZM35.6788 12.1844L36.6597 17.6327H33.9732L35.6788 12.1844ZM17.109 8.2651L14.4296 22.7739H17.6687L20.3468 8.26473L17.109 8.2651ZM12.3173 8.2651L8.94588 18.1404L7.5821 9.74354C7.42208 8.80618 6.79014 8.26492 6.08836 8.26492H0.577192L0.5 8.68624C1.63142 8.97075 2.91691 9.42963 3.69572 9.92063C4.17234 10.2206 4.30825 10.4828 4.46482 11.1955L7.04786 22.7741H10.4708L15.7186 8.26492L12.3173 8.2651Z" fill="url(#paint0_linear_103_53)"/>
</g>
<rect x="0.5" y="0.5" width="40.0835" height="30" stroke="#FBFBFB"/>
<defs>
<linearGradient id="paint0_linear_103_53" x1="1843.3" y1="53.09" x2="1893.6" y2="-1487.01" gradientUnits="userSpaceOnUse">
<stop stop-color="#222357"/>
<stop offset="1" stop-color="#254AA5"/>
</linearGradient>
<clipPath id="clip0_103_53">
<rect x="0.5" y="0.5" width="40.0835" height="30" fill="white"/>
</clipPath>
</defs>
</svg>
