<svg width="42" height="31" viewBox="0 0 42 31" fill="none" xmlns="http://www.w3.org/2000/svg">
<g clip-path="url(#clip0_103_48)">
<path d="M7.78783 30.3509V28.3653C7.78783 27.604 7.30655 27.1077 6.48159 27.1077C6.06919 27.1077 5.62235 27.2401 5.31297 27.6704C5.07249 27.3063 4.72882 27.1077 4.21325 27.1077C3.86942 27.1077 3.52592 27.2069 3.25083 27.571V27.1739H2.52905V30.3509H3.25083V28.5969C3.25083 28.0344 3.5602 27.7696 4.04149 27.7696C4.52247 27.7696 4.76327 28.0674 4.76327 28.5969V30.3509H5.48504V28.5969C5.48504 28.0344 5.82855 27.7696 6.27539 27.7696C6.75668 27.7696 6.99717 28.0674 6.99717 28.5969V30.3509H7.78783ZM18.4768 27.1739H17.3084V26.2142H16.5866V27.1739H15.9336V27.8026H16.5864V29.2589C16.5864 29.987 16.8958 30.4171 17.7208 30.4171C18.0301 30.4171 18.3737 30.3179 18.6145 30.1855L18.4081 29.5898C18.2019 29.7221 17.9614 29.7553 17.7895 29.7553C17.4458 29.7553 17.3084 29.5567 17.3084 29.2257V27.8026H18.4768V27.1739ZM24.5949 27.1076C24.1825 27.1076 23.9075 27.3063 23.7356 27.571V27.1739H23.0138V30.3509H23.7356V28.5639C23.7356 28.0344 23.9761 27.7365 24.4229 27.7365C24.5604 27.7365 24.7323 27.7697 24.8698 27.8027L25.076 27.1409C24.9385 27.1077 24.7323 27.1077 24.5949 27.1077M15.3492 27.4388C15.0054 27.2071 14.5243 27.1079 14.0087 27.1079C13.1839 27.1079 12.6341 27.505 12.6341 28.1338C12.6341 28.6634 13.0465 28.9611 13.7682 29.0605L14.1119 29.0936C14.49 29.1597 14.6962 29.259 14.6962 29.4245C14.6962 29.6561 14.4213 29.8216 13.94 29.8216C13.4589 29.8216 13.0807 29.6561 12.8401 29.4907L12.4964 30.0202C12.8745 30.2849 13.3901 30.4172 13.9055 30.4172C14.868 30.4172 15.418 29.9871 15.418 29.3914C15.418 28.8288 14.9711 28.5309 14.2837 28.4317L13.94 28.3985C13.6306 28.3653 13.3901 28.2993 13.3901 28.1008C13.3901 27.8691 13.6306 27.7367 14.0087 27.7367C14.4213 27.7367 14.8337 27.9021 15.0399 28.0014L15.3492 27.4388ZM34.528 27.1079C34.1154 27.1079 33.8405 27.3064 33.6686 27.5712V27.1741H32.9468V30.3511H33.6686V28.564C33.6686 28.0346 33.9092 27.7367 34.3559 27.7367C34.4935 27.7367 34.6654 27.7699 34.8029 27.8029L35.0091 27.1411C34.8716 27.1079 34.6654 27.1079 34.528 27.1079ZM25.3166 28.7626C25.3166 29.7223 26.004 30.4172 27.0696 30.4172C27.5507 30.4172 27.8944 30.318 28.238 30.0533L27.8944 29.4907C27.6194 29.6893 27.3445 29.7884 27.0351 29.7884C26.4508 29.7884 26.0384 29.3914 26.0384 28.7626C26.0384 28.1669 26.4508 27.7697 27.0351 27.7367C27.3445 27.7367 27.6194 27.8359 27.8944 28.0346L28.238 27.472C27.8944 27.2071 27.5507 27.1079 27.0696 27.1079C26.004 27.1079 25.3166 27.8029 25.3166 28.7626ZM31.9845 28.7626V27.1741H31.2627V27.5712C31.0221 27.2734 30.6784 27.1079 30.2316 27.1079C29.3036 27.1079 28.5818 27.8029 28.5818 28.7626C28.5818 29.7223 29.3036 30.4172 30.2316 30.4172C30.7127 30.4172 31.0565 30.2519 31.2627 29.954V30.3511H31.9845V28.7626ZM29.3379 28.7626C29.3379 28.2 29.716 27.7367 30.3346 27.7367C30.9189 27.7367 31.3315 28.1669 31.3315 28.7626C31.3315 29.3252 30.9189 29.7884 30.3346 29.7884C29.716 29.7553 29.3379 29.3252 29.3379 28.7626ZM20.711 27.1079C19.7486 27.1079 19.0611 27.7697 19.0611 28.7626C19.0611 29.7554 19.7485 30.4172 20.7453 30.4172C21.2265 30.4172 21.7078 30.2849 22.0859 29.9871L21.742 29.4907C21.4671 29.6893 21.1234 29.8216 20.7798 29.8216C20.3329 29.8216 19.8861 29.6231 19.7829 29.0603H22.2233V28.7957C22.2578 27.7697 21.6392 27.1079 20.711 27.1079ZM20.7109 27.7035C21.1576 27.7035 21.4671 27.9684 21.5357 28.4648H19.8172C19.8859 28.0346 20.1953 27.7035 20.7109 27.7035ZM38.6178 28.7626V25.9165H37.896V27.5712C37.6554 27.2734 37.3117 27.1079 36.8649 27.1079C35.9369 27.1079 35.2151 27.8029 35.2151 28.7626C35.2151 29.7223 35.9369 30.4172 36.8649 30.4172C37.3462 30.4172 37.6898 30.2519 37.896 29.954V30.3511H38.6178V28.7626ZM35.9713 28.7626C35.9713 28.2 36.3493 27.7367 36.9681 27.7367C37.5524 27.7367 37.9648 28.1669 37.9648 28.7626C37.9648 29.3252 37.5524 29.7884 36.9681 29.7884C36.3493 29.7553 35.9713 29.3252 35.9713 28.7626ZM11.8432 28.7626V27.1741H11.1215V27.5712C10.8808 27.2734 10.5372 27.1079 10.0903 27.1079C9.16234 27.1079 8.44056 27.8029 8.44056 28.7626C8.44056 29.7223 9.16234 30.4172 10.0903 30.4172C10.5716 30.4172 10.9153 30.2519 11.1215 29.954V30.3511H11.8432V28.7626ZM9.16234 28.7626C9.16234 28.2 9.54045 27.7367 10.159 27.7367C10.7434 27.7367 11.1559 28.1669 11.1559 28.7626C11.1559 29.3252 10.7434 29.7884 10.159 29.7884C9.54045 29.7553 9.16234 29.3252 9.16234 28.7626Z" fill="black"/>
<path d="M15.1085 3.04819H25.9351V21.7795H15.1085V3.04819Z" fill="#FF5F00"/>
<path d="M15.796 12.4139C15.796 8.60814 17.6519 5.23246 20.5046 3.04819C18.4082 1.4597 15.7617 0.5 12.8746 0.5C6.03465 0.5 0.501099 5.82809 0.501099 12.4139C0.501099 18.9996 6.03465 24.3278 12.8744 24.3278C15.7615 24.3278 18.408 23.3681 20.5046 21.7795C17.6519 19.6284 15.796 16.2197 15.796 12.4139Z" fill="#EB001B"/>
<path d="M40.5426 12.4139C40.5426 18.9996 35.009 24.3278 28.1692 24.3278C25.2821 24.3278 22.6357 23.3681 20.5391 21.7795C23.4262 19.5954 25.2478 16.2197 25.2478 12.4139C25.2478 8.60814 23.3917 5.23246 20.5391 3.04819C22.6355 1.4597 25.2821 0.5 28.1692 0.5C35.009 0.5 40.5426 5.86126 40.5426 12.4139Z" fill="#F79E1B"/>
</g>
<rect x="0.5" y="0.5" width="40.0835" height="30" stroke="#FBFBFB"/>
<defs>
<clipPath id="clip0_103_48">
<rect x="0.5" y="0.5" width="40.0835" height="30" fill="white"/>
</clipPath>
</defs>
</svg>
