<svg width="41" height="30" viewBox="0 0 41 30" fill="none" xmlns="http://www.w3.org/2000/svg">
<g clip-path="url(#clip0_103_45)">
<path d="M0 0H40.0835V30H0V0Z" fill="white"/>
<path d="M0 0V30H40.0835V25.26H34.552L32.5077 23.4702L30.3833 25.26H14.6706V15.7302H9.48617L15.9669 4.7502H22.2728L23.796 7.2402V4.7502H31.6259L32.935 7.3602L34.2177 4.7502H40.0835V0H0ZM35.5541 6.3L33.4962 10.3602L32.9486 11.4606L32.3875 10.3602L30.3168 6.3H25.7873V14.3004H28.513V9.09059L28.4994 8.04L29.0341 9.09059L31.6395 14.3004H34.2313L36.8504 9.09059L37.3578 8.0502V14.3004H40.0835V6.3H35.5541ZM17.4363 6.3L12.7065 14.3004H15.8057L16.6347 12.7602H21.819L22.6472 14.3004H25.7873L21.0839 6.3H17.4363ZM18.6918 9.0102L19.2265 8.01059L19.7612 9.0102L20.8699 11.0298H17.583L18.6918 9.0102ZM35.7681 15.7404L32.5478 18.33L29.3411 15.7404H16.8615V23.7102H25.7873V21.9805H19.5872V20.5902H25.6671V18.8706H19.5872V17.4702H25.7873V15.7405L30.7705 19.74L25.7873 23.7102H29.2345L32.4813 21.1104L35.7144 23.7102H39.2546L34.2578 19.71L39.2546 15.7404H35.7681ZM37.0636 19.7004L40.0835 22.0002V17.43L37.0636 19.7004Z" fill="#006FCF"/>
</g>
<defs>
<clipPath id="clip0_103_45">
<rect width="40.0835" height="30" fill="white"/>
</clipPath>
</defs>
</svg>
