<svg width="50" height="50" viewBox="0 0 50 50" fill="none" xmlns="http://www.w3.org/2000/svg">
<path d="M16.4667 36.5896C16.5775 37.0873 16.8378 37.5393 17.2128 37.8848C17.5878 38.2304 18.0595 38.453 18.5646 38.5228C19.0697 38.5927 19.5841 38.5064 20.0388 38.2755C20.4935 38.0446 20.8667 37.6803 21.1083 37.2312L25.4625 30.7875L35.6854 41.0104C35.8918 41.2168 36.1369 41.3806 36.4066 41.4923C36.6763 41.604 36.9654 41.6615 37.2573 41.6615C37.5492 41.6615 37.8383 41.604 38.108 41.4923C38.3777 41.3806 38.6228 41.2168 38.8292 41.0104L41.0104 38.8292C41.2169 38.6227 41.3806 38.3777 41.4923 38.108C41.604 37.8383 41.6615 37.5492 41.6615 37.2573C41.6615 36.9654 41.604 36.6763 41.4923 36.4066C41.3806 36.1369 41.2169 35.8918 41.0104 35.6854L30.7875 25.4625L37.2729 21.1083C37.7219 20.8665 38.0862 20.4931 38.317 20.0383C38.5477 19.5835 38.6338 19.069 38.5638 18.5638C38.4937 18.0587 38.2708 17.587 37.925 17.2122C37.5792 16.8373 37.1271 16.5772 36.6292 16.4667L8.33334 8.33333L16.4667 36.5896Z" stroke="black" stroke-width="2" stroke-linecap="round" stroke-linejoin="round"/>
</svg>
