<svg width="48" height="48" viewBox="0 0 48 48" fill="none" xmlns="http://www.w3.org/2000/svg">
<path d="M0 8C0 3.58172 3.58172 0 8 0H40C44.4183 0 48 3.58172 48 8V40C48 44.4183 44.4183 48 40 48H8C3.58172 48 0 44.4183 0 40V8Z" fill="#F56E0F"/>
<path d="M45 24C45 35.598 35.598 45 24 45C12.402 45 3 35.598 3 24C3 12.402 12.402 3 24 3C35.598 3 45 12.402 45 24Z" fill="black"/>
<path d="M27.9318 22.1808C31.108 26.699 31.8515 31.6491 29.5924 33.2372C27.3333 34.8252 22.9272 32.45 19.751 27.9318C16.5748 23.4137 15.8313 18.4636 18.0904 16.8755C20.3495 15.2874 24.7556 17.6627 27.9318 22.1808Z" fill="#F56E0F"/>
</svg>
