<svg width="43" height="43" viewBox="0 0 43 43" fill="none" xmlns="http://www.w3.org/2000/svg">
<path fill-rule="evenodd" clip-rule="evenodd" d="M34.5523 22.6557C35.8191 21.3689 36.5229 19.6316 36.5088 17.8259C36.4947 16.0202 35.7639 14.2941 34.4771 13.0273C33.8399 12.4 33.0855 11.9044 32.2568 11.5687C31.4281 11.233 30.5414 11.0638 29.6473 11.0708C27.8416 11.0849 26.1155 11.8158 24.8487 13.1026C24.5047 13.4466 24.0675 13.8688 23.5372 14.3693L22.0626 15.7578L20.5881 14.3693C20.0566 13.8676 19.6188 13.4454 19.2748 13.1026C17.998 11.8258 16.2663 11.1085 14.4606 11.1085C12.6549 11.1085 10.9232 11.8258 9.64638 13.1026C7.01622 15.7345 6.98576 19.9897 9.54963 22.6342L22.0626 35.1472L34.5523 22.6557ZM8.12526 11.5832C8.95714 10.7511 9.94481 10.091 11.0318 9.64069C12.1189 9.19035 13.284 8.95855 14.4606 8.95855C15.6372 8.95855 16.8023 9.19035 17.8893 9.64069C18.9764 10.091 19.964 10.7511 20.7959 11.5832C21.122 11.9105 21.5442 12.3178 22.0626 12.8051C22.5786 12.3178 23.0009 11.9099 23.3293 11.5814C24.9965 9.8886 27.2678 8.92739 29.6437 8.90925C32.0196 8.8911 34.3054 9.81751 35.9982 11.4847C37.691 13.1518 38.6522 15.4232 38.6704 17.7991C38.6885 20.1749 37.7621 22.4607 36.0949 24.1535L23.3293 36.921C22.9933 37.2568 22.5377 37.4455 22.0626 37.4455C21.5875 37.4455 21.1319 37.2568 20.7959 36.921L8.02672 24.1518C6.38921 22.4629 5.48167 20.1978 5.50011 17.8455C5.51855 15.4932 6.46148 13.2426 8.12526 11.5796V11.5832Z" fill="black"/>
</svg>
